<svg clip-rule="evenodd" fill-rule="evenodd" stroke-linejoin="round" stroke-miterlimit="1.414" viewBox="0 0 560 400" xmlns="http://www.w3.org/2000/svg"><clipPath id="a"><path d="M123.748 100h312.5v200h-312.5z"/></clipPath><g clip-path="url(#a)"><path d="M216.94 160.006c2.883-3.496 4.829-8.354 4.3-13.196-4.166.171-9.204 2.784-12.171 6.267-2.687 3.091-5.012 8.041-4.37 12.787 4.633.358 9.358-2.363 12.241-5.858zm11.97 30.724c-.092-10.471 8.542-15.508 8.942-15.758-4.871-7.083-12.425-8.066-15.116-8.175-6.438-.637-12.575 3.792-15.829 3.792-3.266 0-8.291-3.692-13.641-3.579-7.017.099-13.487 4.079-17.099 10.358-7.271 12.678-1.846 31.403 5.253 41.657 3.476 5.02 7.608 10.661 13.054 10.457 5.242-.204 7.208-3.391 13.542-3.391 6.32-.008 8.108 3.383 13.628 3.287 5.633-.121 9.208-5.125 12.662-10.17 3.971-5.813 5.617-11.458 5.7-11.741-.113-.076-10.971-4.217-11.096-16.737zm67.064-30.729c-2.1-2.024-4.808-3.599-8.049-4.683-3.213-1.07-7.071-1.612-11.467-1.612a74.623 74.623 0 00-8.428.438c-2.334.26-4.66.587-6.975.979l-.679.117v73.609h6.72v-31.011c2.263.387 4.854.591 7.712.591 3.804 0 7.367-.487 10.592-1.442a23.658 23.658 0 008.491-4.428 21.425 21.425 0 005.671-7.371c1.375-2.916 2.074-6.346 2.074-10.204 0-3.191-.504-6.062-1.487-8.532a19.51 19.51 0 00-4.175-6.451zm-6.175 28.116c-3.449 2.892-8.332 4.358-14.528 4.358-1.704 0-3.316-.075-4.796-.212a22.563 22.563 0 01-3.375-.567v-31.302a45.224 45.224 0 013.279-.455c1.638-.175 3.608-.263 5.867-.263a27.98 27.98 0 017.679.997 17.688 17.688 0 015.904 2.891c1.612 1.25 2.879 2.875 3.758 4.833.887 1.983 1.333 4.35 1.333 7.029-.004 5.562-1.729 9.833-5.121 12.691zm52.007 33.841a174.198 174.198 0 01-.104-6.259v-20.462c0-2.425-.247-4.899-.726-7.358a18.66 18.66 0 00-2.783-6.849c-1.366-2.05-3.279-3.741-5.671-5.033-2.391-1.288-5.499-1.937-9.244-1.937-2.734 0-5.404.354-7.925 1.058a25.15 25.15 0 00-7.413 3.525l-.546.379 2.271 5.312.821-.554a21.941 21.941 0 015.817-2.767 21.74 21.74 0 016.445-.991c2.8 0 5.038.508 6.633 1.508 1.621 1.012 2.841 2.267 3.629 3.733a14.208 14.208 0 011.596 4.791c.254 1.738.375 3.292.375 4.625v.592c-9.962-.046-17.741 1.612-22.907 4.942-5.421 3.491-8.171 8.462-8.171 14.77 0 1.816.325 3.646.967 5.454a14.083 14.083 0 002.928 4.866c1.301 1.416 2.98 2.571 4.988 3.434 2 .87 4.354 1.308 6.983 1.308 3.722.062 7.386-.94 10.558-2.888a20.262 20.262 0 003.663-2.871c.447-.449.874-.919 1.279-1.408h.258l.617 5.975h6.478l-.179-.959a41.07 41.07 0 01-.637-5.936zm-6.825-10.483c0 .716-.171 1.699-.496 2.878a14.723 14.723 0 01-1.808 3.596 13.812 13.812 0 01-7.037 5.312 16.457 16.457 0 01-5.388.822c-1.206 0-2.403-.204-3.541-.605a8.532 8.532 0 01-2.979-1.783 8.88 8.88 0 01-2.092-3.029c-.529-1.221-.796-2.733-.796-4.492 0-2.879.775-5.216 2.296-6.924a15.08 15.08 0 015.992-4.063 30.745 30.745 0 018.095-1.845 73.801 73.801 0 017.754-.338zm52.435-36.22l-12.541 34.095a145.06 145.06 0 00-2.179 6.154 273.484 273.484 0 01-.938 2.87h-.237c-.313-.995-.633-1.988-.959-2.979-.649-2-1.349-3.962-2.066-5.833l-13.412-34.307h-7.17l19.186 49.323c.504 1.188.579 1.734.579 1.954 0 .067-.024.471-.587 1.971a35.813 35.813 0 01-4.07 7.566c-1.538 2.092-2.946 3.792-4.201 5.046-1.458 1.458-2.962 2.654-4.491 3.558-1.562.921-2.987 1.667-4.25 2.23l-.724.324 2.337 5.679.742-.275c.607-.229 1.75-.75 3.482-1.595 1.75-.863 3.688-2.229 5.754-4.08a29.7 29.7 0 004.842-5.454c1.416-2.033 2.833-4.42 4.225-7.07 1.374-2.646 2.749-5.654 4.091-8.95a439.132 439.132 0 004.271-10.995l15.495-39.232zm20.812-71.088l3.175.003c.871.005 1.741.017 2.616.038 1.587.042 3.454.129 5.25.454 1.663.3 3.071.763 4.433 1.454a14.53 14.53 0 016.387 6.391c.692 1.359 1.151 2.768 1.45 4.434.321 1.779.413 3.65.451 5.246.024.867.037 1.737.041 2.616.008 1.054.008 2.117.008 3.175v144.044c0 1.058 0 2.116-.008 3.187a112.97 112.97 0 01-.041 2.604c-.042 1.596-.13 3.467-.451 5.258a15.585 15.585 0 01-1.45 4.422 14.654 14.654 0 01-6.395 6.395 15.623 15.623 0 01-4.425 1.454 35.903 35.903 0 01-5.237.45c-.875.021-1.75.033-2.638.033-1.054.008-2.116.008-3.17.008h-256.49c-1.046 0-2.091 0-3.149-.008-.875 0-1.75-.012-2.604-.033a36.479 36.479 0 01-5.25-.45 15.444 15.444 0 01-4.438-1.458 14.363 14.363 0 01-3.699-2.692 14.45 14.45 0 01-2.684-3.699 15.596 15.596 0 01-1.454-4.434 34.926 34.926 0 01-.454-5.246 141.75 141.75 0 01-.038-2.608l-.003-2.541V127.341l.003-2.538c.005-.871.017-1.741.038-2.616.042-1.588.129-3.454.454-5.255a15.445 15.445 0 011.454-4.428 14.556 14.556 0 016.388-6.388 15.496 15.496 0 014.428-1.449 34.915 34.915 0 015.255-.455c.87-.021 1.741-.033 2.608-.037l3.183-.008h256.456m0-4.167H151.772l-3.204.004c-.9.004-1.8.017-2.7.042a39.617 39.617 0 00-5.875.517 19.922 19.922 0 00-5.587 1.841 18.862 18.862 0 00-8.208 8.212 19.754 19.754 0 00-1.842 5.587 39.079 39.079 0 00-.52 5.875c-.021.896-.034 1.796-.038 2.696l-.004 3.204v144.044l.004 3.208c.004.9.017 1.8.042 2.696.054 1.958.17 3.933.521 5.871.35 1.97.928 3.799 1.837 5.587a18.7 18.7 0 008.212 8.212c1.787.912 3.617 1.487 5.583 1.842 1.938.345 3.913.462 5.875.516.9.025 1.796.038 2.7.038 1.067.008 2.137.008 3.204.008h256.456c1.067 0 2.137 0 3.204-.008.9-.005 1.8-.017 2.7-.038 1.958-.054 3.933-.171 5.875-.516a19.914 19.914 0 005.582-1.842 18.683 18.683 0 008.213-8.212c.912-1.788 1.487-3.617 1.837-5.587.35-1.938.463-3.913.517-5.871.025-.9.037-1.8.041-2.696.009-1.071.009-2.137.009-3.208V127.978c0-1.071 0-2.137-.009-3.208-.003-.899-.017-1.798-.041-2.696a39.087 39.087 0 00-.517-5.875 19.712 19.712 0 00-1.837-5.587 18.775 18.775 0 00-8.213-8.212 19.882 19.882 0 00-5.582-1.842 39.75 39.75 0 00-5.875-.516c-.904-.026-1.805-.034-2.7-.042z"/></g></svg>