<svg xmlns="http://www.w3.org/2000/svg" width="32" height="32"><g fill="#333"><path d="M31.965 15.776c-.01-.042-.004-.087-.02-.128-.006-.017-.021-.026-.027-.042-.01-.024-.008-.051-.021-.074-2.9-5.551-9.213-9.528-15.873-9.528-6.661 0-12.973 3.971-15.875 9.521-.013.023-.011.05-.021.074-.007.016-.021.025-.027.042-.016.041-.01.086-.02.128-.018.075-.035.147-.035.224s.018.148.035.224c.01.042.004.087.02.128.006.017.021.026.027.042.01.024.008.051.021.074 2.901 5.551 9.214 9.528 15.875 9.528 6.66 0 12.973-3.971 15.873-9.521.014-.023.012-.05.021-.074.006-.016.021-.025.027-.042.016-.041.01-.086.02-.128.017-.076.035-.148.035-.224s-.018-.149-.035-.224zm-15.942 8.212c-5.615 0-11.112-3.191-13.851-7.995 2.754-4.81 8.243-7.99 13.851-7.99 5.613 0 11.111 3.192 13.85 7.995-2.754 4.811-8.242 7.99-13.85 7.99z"/><path d="M16.023 11.999l-.006.001a3.998 3.998 0 00-3.992 3.996.5.5 0 00.999 0 3.002 3.002 0 012.999-2.997v-.001a.499.499 0 000-.999z"/><path d="M16 9a7 7 0 100 14 7 7 0 000-14zm0 13c-3.309 0-6-2.691-6-6s2.691-6 6-6 6 2.691 6 6-2.691 6-6 6z"/></g></svg>