<svg xmlns="http://www.w3.org/2000/svg" viewBox="0 0 30.669 65.701"><path d="M10.108 3.384C12.675.945 16.309.116 19.753.02c3.635-.032 7.27-.016 10.904-.016.016 3.842.016 7.668 0 11.51h-7.046c-1.483-.096-3.013 1.036-3.284 2.519-.032 2.567-.016 5.133-.016 7.7 3.443.016 6.887 0 10.33.016-.255 3.714-.717 7.413-1.259 11.08-3.045.032-6.09 0-9.135.016-.032 10.952.016 21.888-.016 32.841-4.528.016-9.039-.016-13.567.016-.08-10.952 0-21.904-.048-32.857-2.2-.016-4.416.016-6.616-.016.016-3.683 0-7.365 0-11.032 2.2-.032 4.416 0 6.616-.016.064-3.571-.064-7.158.064-10.729.24-2.853 1.308-5.707 3.428-7.668z"/></svg>