<svg xmlns="http://www.w3.org/2000/svg" viewBox="0 0 61.139 61.377" fill="#fff"><path d="M30.62 14.786c-8.799 0-15.959 7.083-15.959 15.79 0 8.706 7.159 15.789 15.959 15.789 8.799 0 15.959-7.083 15.959-15.789 0-8.707-7.16-15.79-15.959-15.79zm0 25.766c-5.595 0-10.146-4.476-10.146-9.976 0-5.501 4.551-9.976 10.146-9.976 5.594 0 10.146 4.475 10.146 9.976s-4.551 9.976-10.146 9.976z"/><path d="M43.541 0H17.598C7.895 0 0 7.894 0 17.598v26.181c0 9.703 7.894 17.598 17.598 17.598h25.943c9.704 0 17.598-7.895 17.598-17.598V17.598C61.139 7.895 53.245 0 43.541 0zm11.774 43.779c0 6.492-5.282 11.774-11.774 11.774H17.598c-6.492 0-11.774-5.282-11.774-11.774V17.598c0-6.492 5.282-11.774 11.774-11.774h25.943c6.492 0 11.774 5.282 11.774 11.774v26.181z"/><circle cx="46.863" cy="14.141" r="3.755"/></svg>