<svg xmlns="http://www.w3.org/2000/svg" viewBox="0 0 62.769 50.501" fill="#fff"><path d="M62.77 5.992c-2.283 1.141-4.85 1.712-7.418 1.997 2.568-1.712 4.565-3.994 5.706-7.133-2.568 1.427-5.136 2.568-8.274 3.138C50.501 1.426 47.078 0 43.369 0A12.785 12.785 0 0030.53 12.839c0 1.141 0 1.997.285 2.853-10.557-.571-19.972-5.706-26.534-13.41C3.14 4.279 2.569 6.276 2.569 8.844c0 4.565 2.283 8.274 5.706 10.557a10.29 10.29 0 01-5.706-1.712v.285c0 6.277 4.28 11.413 10.271 12.554-1.141.285-2.283.571-3.424.571-.856 0-1.712 0-2.283-.285 1.712 5.136 6.277 8.845 11.983 8.845-4.28 3.424-9.986 5.421-15.978 5.421-1.141 0-1.997 0-3.138-.285 5.706 3.709 12.269 5.706 19.687 5.706 23.681 0 36.52-19.401 36.52-36.52v-1.712c2.854-1.427 4.851-3.709 6.563-6.277z"/></svg>